<svg width="1682" height="1711" viewBox="0 0 1682 1711" fill="none" xmlns="http://www.w3.org/2000/svg">
<path d="M810.5 1702.96L802.529 1702.46C358.788 1674.53 7.5 1306.01 7.5 855.475C7.50001 404.935 358.788 36.4172 802.529 8.48926L810.5 7.9873V1702.96ZM645.198 205.244C537.073 240.293 438.702 302.192 358.898 386.813C238.883 514.074 172.797 680.495 172.797 855.47C172.797 1030.44 238.883 1196.87 358.898 1324.13C438.702 1408.75 537.074 1470.65 645.198 1505.69V205.244Z" fill="#93DEFF" stroke="#93DEFF" stroke-width="15"/>
<path d="M910.472 8.48926C1268.78 31.0509 1566.81 275.781 1668.17 606.503L1671.14 616.2H1497.04L1495.19 611.38C1463.64 528.905 1416.04 452.62 1353.99 386.813V386.814C1274.19 302.214 1175.86 240.291 1067.76 205.258V1505.69C1175.86 1470.65 1274.19 1408.73 1353.99 1324.14L1356.88 1321.04C1417.52 1255.94 1464.13 1180.76 1495.19 1099.57L1497.03 1094.75H1671.14L1668.17 1104.45C1566.81 1435.17 1268.78 1679.9 910.472 1702.46L902.5 1702.96V7.9873L910.472 8.48926Z" fill="#323643" stroke="#323643" stroke-width="15"/>
</svg>
